<svg id="Layer_1" data-name="Layer 1" xmlns="http://www.w3.org/2000/svg" viewBox="0 0 1279.47 477.49"><defs><style>.cls-1{fill:#edcccd}.cls-15,.cls-2,.cls-3,.cls-5{fill:none;stroke-linecap:round;stroke-linejoin:round;stroke-width:4px}.cls-2{stroke:#ceebf2}.cls-3{stroke:#e83134}.cls-4{fill:#ceebf2}.cls-5{stroke:#5cbaae}.cls-6{fill:#5cbaae}.cls-7{fill:#004966}.cls-8{fill:#e69a9c}.cls-9{fill:#a32324}.cls-10{fill:#63010e}.cls-11{fill:#b9c2cc}.cls-12{fill:#dee9f5}.cls-13{fill:#fff}.cls-14{fill:#697077}.cls-15{stroke:#697077}.cls-16{fill:#caebe7}.cls-17{fill:#086e61}</style></defs><title>dashboard</title><rect class="cls-1" width="234.99" height="477.49" rx="8.5" ry="8.5"/><path class="cls-2" d="M647.65 252.34l17.61 16.4-17.06 18.31"/><path class="cls-2" d="M685.71 285.16c-15.1-2.06-67.13-1.17-90.83 1.24" transform="translate(-22.41 -16.82)"/><path class="cls-3" d="M327.85 303.65l14.63-19.1-19.86-15.22"/><path class="cls-3" d="M362.71 301.87c-15.1 2.06-67.13 1.17-90.83-1.24" transform="translate(-22.41 -16.82)"/><path class="cls-2" d="M270.43 204.74l-15.96 18 18.72 16.6"/><path class="cls-2" d="M278.83 239.16c15.1-2.06 67.13-1.17 90.83 1.24" transform="translate(-22.41 -16.82)"/><path class="cls-4" d="M611.19 236.13H615v7.31h6v-7.31h3.77v18.2H621v-7.41h-6v7.41h-3.77v-18.2zM631.83 239.61h-4.58v-3.48h12.9v3.48h-4.58v14.72h-3.74v-14.72zM646.18 239.61h-4.58v-3.48h12.9v3.48h-4.58v14.72h-3.74v-14.72zM657.05 236.13h6.06c4.08 0 6.66 2.37 6.66 6.24v.05c0 4.19-3 6.29-6.81 6.37h-2.13v5.54h-3.77v-18.2zm5.88 9.28a2.78 2.78 0 0 0 3-2.91c0-1.9-1.09-2.94-3.09-2.94h-2.05v5.88h2.11z" transform="translate(-22.41 -16.82)"/><path class="cls-5" d="M1040.18 256.24l17.08 16.94-17.62 17.77"/><path class="cls-5" d="M1077.73 289.54c-15-2.52-105.86-9.14-157.86-5.14" transform="translate(-22.41 -16.82)"/><path class="cls-6" d="M922 236.13h4l3.07 12 3.33-12h3.28l3.35 12 3-12H946l-5.2 18.3h-3.46L934 242.86l-3.33 11.57h-3.43zM948.34 236.13h11.73v3.41h-8v3.93h7v3.41h-7v4.06h8.09v3.41h-11.82v-18.2zM963.14 236.13h6.76a6.65 6.65 0 0 1 4.76 1.59 4.21 4.21 0 0 1 1.22 3.09v.08a4.25 4.25 0 0 1-2.47 4c2 .75 3.25 2 3.25 4.34v.13c0 3.28-2.63 5-6.58 5h-6.94v-18.2zm9 5.36c0-1.33-.94-2-2.55-2h-2.79v4.11h2.63c1.66 0 2.73-.68 2.73-2.05zm-2.05 5.25h-3.3V251h3.38c1.69 0 2.76-.73 2.76-2.13.01-1.33-.93-2.13-2.82-2.13zM978.06 251.88l2.24-2.78a7 7 0 0 0 4.52 2.05c1.46 0 2.34-.73 2.34-1.79 0-.91-.52-1.48-3.12-2.47-3.22-1.25-5.23-2.47-5.23-5.59v-.05c0-3.17 2.44-5.33 6-5.33a8.65 8.65 0 0 1 5.88 2.24l-2.15 2.84a6.37 6.37 0 0 0-3.87-1.69c-1.3 0-2.11.65-2.11 1.59 0 1 .62 1.53 3.46 2.7 3.17 1.25 4.89 2.6 4.89 5.43v.05c0 3.38-2.57 5.46-6.11 5.46a9.77 9.77 0 0 1-6.74-2.66zM993 245.41v-.31c0-5.46 3.43-9.28 8.24-9.28s8.22 3.8 8.22 9.23v.31c0 5.43-3.43 9.28-8.24 9.28s-8.22-3.8-8.22-9.23zm12.56-.08v-.18c0-3.59-1.82-5.85-4.34-5.85s-4.34 2.24-4.34 5.82v.18c0 3.59 1.85 5.85 4.37 5.85s4.32-2.23 4.32-5.82zM1011.81 245.36v-.23c0-5.51 3.43-9.26 8.24-9.26a7.65 7.65 0 0 1 5.85 2.42l-2.26 2.91a5.08 5.08 0 0 0-3.72-1.82c-2.44 0-4.24 2.26-4.24 5.8v.08c0 3.61 1.87 5.82 4.29 5.82a5.12 5.12 0 0 0 3.74-1.9l2.26 2.68a7.91 7.91 0 0 1-6.16 2.73c-4.81 0-8-3.67-8-9.23zM1028.55 236.13h3.77V244l6-7.85h4.45l-6.11 7.72 6.37 10.48h-4.42l-4.55-7.49-1.69 2.13v5.36h-3.77v-18.2zM1045 236.13h11.73v3.41h-8v3.93h7v3.41h-7v4.06h8.09v3.41H1045v-18.2zM1063.29 239.61h-4.58v-3.48h12.9v3.48H1067v14.72h-3.74v-14.72zM1072.54 251.88l2.24-2.78a7 7 0 0 0 4.52 2.05c1.46 0 2.34-.73 2.34-1.79 0-.91-.52-1.48-3.12-2.47-3.22-1.25-5.23-2.47-5.23-5.59v-.05c0-3.17 2.44-5.33 6-5.33a8.65 8.65 0 0 1 5.88 2.24L1083 241a6.37 6.37 0 0 0-3.87-1.69c-1.3 0-2.11.65-2.11 1.59 0 1 .62 1.53 3.46 2.7 3.17 1.25 4.89 2.6 4.89 5.43v.05c0 3.38-2.57 5.46-6.11 5.46a9.77 9.77 0 0 1-6.72-2.66z" transform="translate(-22.41 -16.82)"/><rect class="cls-4" x="357.43" y="169.2" width="198.25" height="198.25" rx="8.5" ry="8.5"/><path class="cls-7" d="M418.93 271.62l2.92-3.64a9.13 9.13 0 0 0 5.92 2.69c1.9 0 3.06-1 3.06-2.35 0-1.19-.68-1.94-4.08-3.23-4.22-1.63-6.84-3.23-6.84-7.31v-.07c0-4.15 3.2-7 7.79-7a11.32 11.32 0 0 1 7.69 2.92l-2.76 3.74a8.33 8.33 0 0 0-5.07-2.21c-1.7 0-2.75.85-2.75 2.07 0 1.36.82 2 4.52 3.54 4.15 1.63 6.39 3.4 6.39 7.11v.12c0 4.42-3.37 7.14-8 7.14a12.78 12.78 0 0 1-8.79-3.52zM439.37 251h15.34v4.46h-10.44v5.14h9.18v4.46h-9.18v5.31h10.58v4.46h-15.48V251zM458.72 251h8.95a8.85 8.85 0 0 1 6.46 2.28 7.54 7.54 0 0 1 2 5.51v.14a7.18 7.18 0 0 1-4.42 7l5.07 8.84h-5.65l-4.38-7.77h-3.09v7.82h-4.93V251zm8.57 11.63c2.52 0 3.88-1.43 3.88-3.57 0-2.38-1.46-3.57-4-3.57h-3.54v7.18h3.64zM477.77 251h5.34l5 16.39 5-16.39h5.2l-8 23.94h-4.51zM501.34 251h15.34v4.46h-10.44v5.14h9.18v4.46h-9.18v5.31h10.58v4.46h-15.48V251zM520.69 251h8.95a8.85 8.85 0 0 1 6.46 2.28 7.54 7.54 0 0 1 2 5.51v.14a7.18 7.18 0 0 1-4.42 7l5.07 8.84h-5.65l-4.38-7.77h-3.09v7.82h-4.93V251zm8.57 11.63c2.52 0 3.88-1.43 3.88-3.57 0-2.38-1.46-3.57-4-3.57h-3.54v7.18h3.64zM429.86 292.72h2.62l-5.2 21.39h11l-.61 2.42H424zM440.85 312.07a6.45 6.45 0 0 1 1.8-4.59 7.39 7.39 0 0 1 5.31-1.94 16.27 16.27 0 0 1 5.1.92l.1-.51a9.93 9.93 0 0 0 .27-2c0-1.91-1.22-3.13-3.95-3.13a10.28 10.28 0 0 0-4.18.92l-.61-2.14a13.15 13.15 0 0 1 5.14-1c3.91 0 6.09 1.87 6.09 4.9a13.71 13.71 0 0 1-.41 2.86l-2.45 10.2h-2.48l.65-2.55a6.94 6.94 0 0 1-5.51 2.89 4.59 4.59 0 0 1-4.87-4.83zm11.36-2.07l.44-1.8a14 14 0 0 0-4.52-.78 4.75 4.75 0 0 0-3.47 1.29 4.42 4.42 0 0 0-1.26 3.16 2.93 2.93 0 0 0 3.16 3.09c2.58-.03 4.97-2.21 5.65-4.96zM462.14 298.77h2.52l-.92 3.81c1.74-2.52 3.91-4.29 7-4.08l-.74 2.69h-.17c-3.3 0-6.33 2.24-7.42 6.77l-2.07 8.57h-2.52zM469.14 312.07a6.45 6.45 0 0 1 1.8-4.59 7.39 7.39 0 0 1 5.31-1.94 16.27 16.27 0 0 1 5.1.92l.1-.51a10 10 0 0 0 .27-2c0-1.91-1.22-3.13-3.95-3.13a10.29 10.29 0 0 0-4.18.92l-.59-2.15a13.15 13.15 0 0 1 5.14-1c3.91 0 6.09 1.87 6.09 4.9a13.71 13.71 0 0 1-.41 2.86l-2.45 10.2h-2.48l.65-2.55a6.94 6.94 0 0 1-5.51 2.89 4.59 4.59 0 0 1-4.89-4.82zM480.5 310l.44-1.8a14 14 0 0 0-4.52-.78 4.75 4.75 0 0 0-3.47 1.29 4.42 4.42 0 0 0-1.26 3.16 2.93 2.93 0 0 0 3.16 3.09c2.59-.03 4.97-2.21 5.65-4.96zM487.68 298.77h2.62l1.36 14.59 8.34-14.59h2.79L492 316.66h-2.25zM504.92 308.56a9.85 9.85 0 0 0 0 1c0 3.2 1.73 5.14 4.42 5.14a7 7 0 0 0 4.49-1.7l1.19 1.77a9 9 0 0 1-5.75 2.11c-4.12 0-6.84-2.79-6.84-7.28a12.66 12.66 0 0 1 3.44-8.67 7.9 7.9 0 0 1 5.68-2.48c3.67 0 5.82 2.69 5.82 6.36a12.38 12.38 0 0 1-.65 3.77h-11.8zm.34-1.9h9.39a6.45 6.45 0 0 0 .24-1.9c0-2.31-1.12-4.18-3.54-4.18a5.51 5.51 0 0 0-3.74 1.67 9.71 9.71 0 0 0-2.35 4.41zM525 292h2.52l-6 24.56H519z" transform="translate(-22.41 -16.82)"/><rect class="cls-8" x="45" y="76.03" width="133.09" height="133.09" rx="8.5" ry="8.5"/><path class="cls-9" d="M59.22 41.14h15.34v4.46H64.12v5.14h9.18v4.46h-9.18v5.31H74.7v4.46H59.22V41.14zM96.57 41.14l-6.8 11.63 7.08 12.18h-5.62l-4.35-8.16-4.39 8.16H77l7-12.11-6.73-11.7h5.61l4 7.72L91 41.14h5.48zM104.56 45.7h-6v-4.56h16.87v4.56h-6v19.25h-4.9V45.7zM118.77 41.14h15.34v4.46h-10.44v5.14h9.18v4.46h-9.18v5.31h10.58v4.46h-15.48V41.14zM138.13 41.14h8.95a8.85 8.85 0 0 1 6.46 2.28 7.54 7.54 0 0 1 2 5.51v.14a7.18 7.18 0 0 1-4.42 7l5.07 8.84h-5.65l-4.39-7.82h-3.09v7.82h-4.93V41.14zm8.57 11.63c2.52 0 3.88-1.43 3.88-3.57 0-2.38-1.46-3.57-4-3.57h-3.54v7.18h3.64zM159.45 41.14H164L173.09 55V41.14h4.83v23.81h-4.22l-9.42-14.39v14.39h-4.83V41.14zM189.41 41h4.69l8.54 23.94h-5.1l-1.77-5.17h-8.2l-1.73 5.17h-5zm4.86 14.42l-2.58-7.75-2.62 7.75h5.2zM205.6 41.14h4.93v19.28h9.63v4.52H205.6v-23.8z" transform="translate(-22.41 -16.82)"/><path class="cls-10" d="M97.36 145.72a11.61 11.61 0 0 1 3.27-8.09 8.33 8.33 0 0 1 6.07-2.61 6.33 6.33 0 0 1 5.26 2.41l-1.39 1.24a4.8 4.8 0 0 0-4-1.95 6.27 6.27 0 0 0-4.53 2 10.25 10.25 0 0 0-2.68 6.92c0 3.24 1.93 5.21 4.7 5.21a6.22 6.22 0 0 0 3.27-.88l1.24-5.09h-4.19l.44-1.68h6l-2 7.94a9 9 0 0 1-4.87 1.41c-3.69.04-6.59-2.55-6.59-6.83zM124.21 144.65a8.83 8.83 0 0 1-2.39 6.12 5.93 5.93 0 0 1-4.22 1.83c-2.92 0-4.8-2.17-4.8-5.31a8.62 8.62 0 0 1 2.39-6.09 5.87 5.87 0 0 1 4.19-1.83c2.93-.01 4.83 2.11 4.83 5.28zm-3.75 5.09a7.57 7.57 0 0 0 1.92-5c0-2.41-1.24-3.75-3.09-3.75a3.91 3.91 0 0 0-2.75 1.24 7.43 7.43 0 0 0-1.93 5c0 2.41 1.24 3.73 3.09 3.73a3.84 3.84 0 0 0 2.76-1.22zM137.56 144.65a8.83 8.83 0 0 1-2.39 6.12 5.93 5.93 0 0 1-4.22 1.83c-2.92 0-4.8-2.17-4.8-5.31a8.62 8.62 0 0 1 2.39-6.09 5.87 5.87 0 0 1 4.19-1.83c2.93-.01 4.83 2.11 4.83 5.28zm-3.75 5.09a7.57 7.57 0 0 0 1.92-5c0-2.41-1.24-3.75-3.09-3.75a3.91 3.91 0 0 0-2.75 1.24 7.43 7.43 0 0 0-1.93 5c0 2.41 1.24 3.73 3.09 3.73a3.84 3.84 0 0 0 2.76-1.22zM138.2 154.25l1-1.34a6.87 6.87 0 0 0 4.22 1.56 3.71 3.71 0 0 0 2.88-1.07 5.24 5.24 0 0 0 1.32-2.63l.38-1.57a5.43 5.43 0 0 1-4.14 2.22c-2.24 0-4.19-1.61-4.19-4.56a8.45 8.45 0 0 1 2.31-5.78 5.57 5.57 0 0 1 3.9-1.73 3.84 3.84 0 0 1 3.8 2.88l.66-2.63h1.8l-2.71 11.23a7.33 7.33 0 0 1-1.8 3.66 5.58 5.58 0 0 1-4.19 1.54 8.65 8.65 0 0 1-5.24-1.78zm9.14-5.65a6.31 6.31 0 0 0 1.71-4.29 3.11 3.11 0 0 0-3-3.36 3.81 3.81 0 0 0-2.73 1.19 6.81 6.81 0 0 0-1.75 4.56 2.86 2.86 0 0 0 2.88 3.19 4.26 4.26 0 0 0 2.88-1.3zM157 134.73h1.8l-4.29 17.59h-1.83zM160.78 146.62v.71c0 2.29 1.24 3.68 3.17 3.68a5 5 0 0 0 3.22-1.22l.85 1.27a6.46 6.46 0 0 1-4.12 1.51c-2.95 0-4.9-2-4.9-5.21a9.07 9.07 0 0 1 2.46-6.21 5.66 5.66 0 0 1 4.07-1.78c2.63 0 4.17 1.92 4.17 4.56a8.87 8.87 0 0 1-.46 2.71h-8.43zm.24-1.36h6.73a4.65 4.65 0 0 0 .17-1.36c0-1.66-.8-3-2.53-3a4 4 0 0 0-2.68 1.19 7 7 0 0 0-1.71 3.17zM88.48 175.13a12.45 12.45 0 0 1 3.27-8.43 7.75 7.75 0 0 1 5.58-2.44 5.86 5.86 0 0 1 5.19 2.88l-1.52 1.14a4.26 4.26 0 0 0-3.8-2.28 5.73 5.73 0 0 0-4 1.8 10.78 10.78 0 0 0-2.75 7.29c0 3.07 1.71 5 4.29 5a5.73 5.73 0 0 0 4-1.75l1.12 1.27a7.26 7.26 0 0 1-5.19 2.24c-3.56-.02-6.19-2.53-6.19-6.72zM101.83 178.37a4.62 4.62 0 0 1 1.29-3.29 5.3 5.3 0 0 1 3.8-1.39 11.64 11.64 0 0 1 3.66.66l.07-.37a7.14 7.14 0 0 0 .19-1.44c0-1.36-.88-2.24-2.83-2.24a7.36 7.36 0 0 0-3 .66l-.44-1.54a9.42 9.42 0 0 1 3.68-.73c2.8 0 4.36 1.34 4.36 3.51a9.8 9.8 0 0 1-.29 2l-1.75 7.31h-1.77l.46-1.83a5 5 0 0 1-3.95 2.07 3.29 3.29 0 0 1-3.48-3.38zm8.14-1.51l.32-1.29A10 10 0 0 0 107 175a3.4 3.4 0 0 0-2.49.93 3.17 3.17 0 0 0-.9 2.27 2.1 2.1 0 0 0 2.27 2.22 4.47 4.47 0 0 0 4.12-3.56zM118.45 164h1.8L116 181.56h-1.83zM122.2 175.86v.71c0 2.29 1.24 3.68 3.17 3.68a5 5 0 0 0 3.22-1.22l.85 1.27a6.46 6.46 0 0 1-4.12 1.51c-2.95 0-4.9-2-4.9-5.21a9.07 9.07 0 0 1 2.46-6.21 5.66 5.66 0 0 1 4.07-1.78c2.63 0 4.17 1.92 4.17 4.56a8.87 8.87 0 0 1-.46 2.71h-8.46zm.24-1.36h6.73a4.65 4.65 0 0 0 .17-1.36c0-1.66-.8-3-2.53-3a4 4 0 0 0-2.68 1.19 7 7 0 0 0-1.69 3.17zM135.21 168.84H137l-.44 1.9a4.84 4.84 0 0 1 3.83-2.14 3.19 3.19 0 0 1 3.39 3.46 10.11 10.11 0 0 1-.32 2.12l-1.75 7.38h-1.83l1.8-7.46a8.35 8.35 0 0 0 .22-1.66 2.06 2.06 0 0 0-2.29-2.22c-1.71 0-3.31 1.58-3.85 3.68l-1.85 7.65h-1.8zM154 179.52a5.33 5.33 0 0 1-4.07 2.29c-2.36 0-4.12-1.9-4.12-5a9.44 9.44 0 0 1 2.46-6.51 5.48 5.48 0 0 1 3.8-1.66 4 4 0 0 1 3.87 2.9l1.83-7.53h1.83l-4.31 17.59h-1.8zm-.63-.61a7.56 7.56 0 0 0 2-5.09c0-2.12-1.27-3.63-3.07-3.63a3.72 3.72 0 0 0-2.63 1.15 7.69 7.69 0 0 0-1.95 5.26c0 2.22 1.07 3.63 2.83 3.63a4 4 0 0 0 2.86-1.32zM158.95 178.37a4.62 4.62 0 0 1 1.29-3.29 5.3 5.3 0 0 1 3.8-1.39 11.64 11.64 0 0 1 3.66.66l.07-.37a7.14 7.14 0 0 0 .19-1.44c0-1.36-.88-2.24-2.83-2.24a7.36 7.36 0 0 0-3 .66l-.44-1.54a9.42 9.42 0 0 1 3.68-.73c2.8 0 4.36 1.34 4.36 3.51a9.8 9.8 0 0 1-.29 2l-1.75 7.31h-1.78l.46-1.83a5 5 0 0 1-3.95 2.07 3.29 3.29 0 0 1-3.47-3.38zm8.14-1.51l.32-1.29a10 10 0 0 0-3.24-.56 3.4 3.4 0 0 0-2.49.93 3.17 3.17 0 0 0-.9 2.27 2.1 2.1 0 0 0 2.27 2.22 4.47 4.47 0 0 0 4.03-3.57zM174.2 168.84h1.8l-.66 2.73c1.24-1.8 2.8-3.07 5-2.92l-.51 1.92h-.12c-2.36 0-4.53 1.61-5.31 4.85l-1.49 6.14h-1.8z" transform="translate(-22.41 -16.82)"/><rect class="cls-8" x="23.33" y="226.5" width="115.53" height="115.53" rx="8.5" ry="8.5"/><path class="cls-10" d="M70 291.57h1.88l-3.74 15.33H76l-.44 1.73h-9.74zM77.86 305.44a4.62 4.62 0 0 1 1.29-3.29 5.3 5.3 0 0 1 3.8-1.39 11.65 11.65 0 0 1 3.66.66l.07-.37a7.14 7.14 0 0 0 .19-1.44c0-1.37-.88-2.24-2.83-2.24a7.35 7.35 0 0 0-3 .66l-.44-1.54a9.41 9.41 0 0 1 3.68-.73c2.8 0 4.36 1.34 4.36 3.51a9.8 9.8 0 0 1-.29 2l-1.75 7.31h-1.77l.46-1.83a5 5 0 0 1-3.95 2.07 3.29 3.29 0 0 1-3.48-3.38zm8.14-1.51l.32-1.29a10 10 0 0 0-3.24-.56 3.4 3.4 0 0 0-2.49.93 3.17 3.17 0 0 0-.9 2.27 2.1 2.1 0 0 0 2.31 2.21 4.47 4.47 0 0 0 4-3.56zM89.48 306.61l1.19-1.19a4.76 4.76 0 0 0 3.58 1.93 2.24 2.24 0 0 0 2.39-2c0-.8-.49-1.44-2.19-2.44-1.95-1.14-2.8-2.07-2.8-3.58 0-1.92 1.63-3.61 4.14-3.61a5.79 5.79 0 0 1 4.17 1.9l-1.12 1.24a4.47 4.47 0 0 0-3.14-1.66 2.07 2.07 0 0 0-2.24 2c0 .8.44 1.34 2.19 2.41 2.07 1.22 2.8 2.24 2.8 3.63 0 2.07-1.88 3.68-4.29 3.68a6.09 6.09 0 0 1-4.68-2.31zM101.35 306.54a6.13 6.13 0 0 1 .2-1.36l1.85-7.65h-1.56l.39-1.61h1.56l.9-3.68h1.8l-.9 3.68h3.22l-.39 1.61h-3.22l-1.88 7.8a3.09 3.09 0 0 0-.1.78c0 .71.51 1.07 1.41 1.07a3.88 3.88 0 0 0 1.51-.34l-.39 1.63a4.22 4.22 0 0 1-1.78.34c-1.55-.01-2.62-.81-2.62-2.27zM109 306.1h2.19l-.61 2.53h-2.22zM117.14 297.52h-1.56l.41-1.61h1.54l.34-1.34a5.26 5.26 0 0 1 1.34-2.66 3.6 3.6 0 0 1 2.58-1 5.19 5.19 0 0 1 2 .41l-.41 1.56a4 4 0 0 0-1.61-.37c-1.12 0-1.8.68-2.17 2.14l-.29 1.19h3.34l-.44 1.61H119l-2.7 11.11h-1.83zM124.86 295.91h1.8l-.44 1.9a4.6 4.6 0 0 1 3.68-2.14 3 3 0 0 1 3.07 2.58 5.14 5.14 0 0 1 4.36-2.58 3.18 3.18 0 0 1 3.34 3.41 11.91 11.91 0 0 1-.32 2.17l-1.8 7.38h-1.8l1.8-7.48a8.38 8.38 0 0 0 .22-1.63 2 2 0 0 0-2.14-2.22c-1.58 0-3.19 1.56-3.68 3.58l-1.88 7.75h-1.8l1.8-7.46a7 7 0 0 0 .22-1.66 2 2 0 0 0-2.17-2.22c-1.61 0-3.17 1.61-3.7 3.68l-1.85 7.65h-1.8z" transform="translate(-22.41 -16.82)"/><rect class="cls-8" x="80.55" y="356.72" width="95.09" height="95.09" rx="8.5" ry="8.5"/><path class="cls-10" d="M139.85 426.09h3.06l-.85 3.54H139zM147.68 426.09h3.06l-.85 3.54h-3.1zM155.51 426.09h3.06l-.85 3.54h-3.1z" transform="translate(-22.41 -16.82)"/><path class="cls-11" d="M1301.88 204.81a18.61 18.61 0 0 0-18.29-18.41h-162.1c-9.94 0-16.62 8.47-16.62 18.41v7.59h197v-7.59z" transform="translate(-22.41 -16.82)"/><path class="cls-12" d="M1121.49 385.4h162.09c9.94 0 18.29-8.55 18.29-18.5V212.4h-197v154.5c.01 9.94 6.68 18.5 16.62 18.5z" transform="translate(-22.41 -16.82)"/><circle class="cls-13" cx="1095.95" cy="182.99" r="3.72"/><circle class="cls-13" cx="1107.64" cy="182.99" r="3.72"/><circle class="cls-13" cx="1119.33" cy="182.99" r="3.72"/><path class="cls-14" d="M1127.32 244.27h8.84a8.7 8.7 0 0 1 6.22 2.08 5.51 5.51 0 0 1 1.6 4v.1a5.57 5.57 0 0 1-3.23 5.2c2.55 1 4.25 2.55 4.25 5.68v.17c0 4.29-3.43 6.53-8.6 6.53h-9.08v-23.76zm11.8 7c0-1.74-1.22-2.65-3.33-2.65h-3.67V254h3.44c2.18 0 3.57-.88 3.57-2.69zm-2.69 6.87h-4.32v5.58h4.42c2.21 0 3.61-1 3.61-2.79 0-1.72-1.26-2.78-3.71-2.78zM1148.57 244.27h8.95a8.85 8.85 0 0 1 6.46 2.28 7.54 7.54 0 0 1 2 5.51v.14a7.18 7.18 0 0 1-4.42 7l5.07 8.84H1161l-4.39-7.82h-3.1v7.82h-4.93v-23.77zm8.57 11.63c2.52 0 3.88-1.43 3.88-3.57 0-2.38-1.46-3.57-4-3.57h-3.54v7.18h3.64zM1169 256.42V256c0-7.14 4.49-12.14 10.78-12.14s10.75 5 10.75 12.07v.41c0 7.11-4.49 12.14-10.78 12.14s-10.75-4.96-10.75-12.06zm16.43-.1v-.24c0-4.69-2.38-7.65-5.68-7.65s-5.68 2.92-5.68 7.62v.24c0 4.69 2.42 7.65 5.71 7.65s5.69-2.94 5.69-7.63zM1191.8 244.27h5.2l4 15.68 4.35-15.75h4.29L1214 260l4-15.68h5.1l-6.8 23.94h-4.52l-4.35-15.13-4.35 15.13h-4.49zM1224 264.89l2.92-3.64a9.14 9.14 0 0 0 5.92 2.69c1.9 0 3.06-1 3.06-2.35 0-1.19-.68-1.94-4.08-3.23-4.22-1.63-6.84-3.23-6.84-7.31v-.07c0-4.15 3.2-7 7.79-7a11.32 11.32 0 0 1 7.69 2.92l-2.76 3.74a8.33 8.33 0 0 0-5.07-2.21c-1.7 0-2.75.85-2.75 2.08 0 1.36.82 2 4.52 3.54 4.15 1.63 6.39 3.4 6.39 7.11v.07c0 4.42-3.37 7.14-8 7.14a12.78 12.78 0 0 1-8.79-3.48zM1244.48 244.27h15.34v4.46h-10.44v5.14h9.18v4.46h-9.18v5.31H1260v4.46h-15.48v-23.83zM1263.84 244.27h8.95a8.85 8.85 0 0 1 6.46 2.28 7.54 7.54 0 0 1 2 5.51v.14a7.18 7.18 0 0 1-4.42 7l5.07 8.84h-5.65l-4.39-7.82h-3.09v7.82h-4.93v-23.77zm8.57 11.63c2.52 0 3.88-1.43 3.88-3.57 0-2.38-1.46-3.57-4-3.57h-3.54v7.18h3.64zM1180.39 279.27h2.75l1.94 20.24 11.77-20.24h3l-14.39 24H1183zM1197.67 298.56a14.44 14.44 0 0 1 .44-3l2.48-10.27h2.52l-2.52 10.37a12.06 12.06 0 0 0-.31 2.31 2.9 2.9 0 0 0 3.2 3.13c2.38 0 4.66-2.21 5.34-5.17l2.62-10.65h2.56l-4.32 17.75h-2.52l.65-2.65c-1.36 1.67-3 3-5.34 3a4.48 4.48 0 0 1-4.8-4.82zM1218.14 295.12a9.84 9.84 0 0 0 0 1c0 3.2 1.73 5.14 4.42 5.14a7 7 0 0 0 4.49-1.7l1.19 1.77a9 9 0 0 1-5.75 2.11c-4.12 0-6.84-2.79-6.84-7.28a12.66 12.66 0 0 1 3.44-8.67 7.9 7.9 0 0 1 5.68-2.48c3.67 0 5.82 2.69 5.82 6.36a12.38 12.38 0 0 1-.65 3.78h-11.77zm.34-1.9h9.39a6.46 6.46 0 0 0 .24-1.91c0-2.31-1.12-4.18-3.54-4.18a5.51 5.51 0 0 0-3.74 1.67 9.7 9.7 0 0 0-2.35 4.42z" transform="translate(-22.41 -16.82)"/><rect class="cls-11" x="1091.84" y="313.81" width="180.22" height="48.63" rx="8.5" ry="8.5"/><path class="cls-13" d="M1135.56 349.32h2.7v10.54h5.26v2.47h-8v-13zM1144.18 356v-.22c0-3.9 2.45-6.63 5.89-6.63s5.87 2.71 5.87 6.6v.22c0 3.88-2.45 6.63-5.89 6.63s-5.87-2.76-5.87-6.6zm9-.06v-.13c0-2.56-1.3-4.18-3.1-4.18s-3.1 1.6-3.1 4.16v.13c0 2.56 1.32 4.18 3.12 4.18s3.06-1.64 3.06-4.2zM1157.62 355.92v-.17c0-3.94 2.45-6.62 5.89-6.62a5.46 5.46 0 0 1 4.18 1.73l-1.62 2.08a3.63 3.63 0 0 0-2.66-1.3c-1.75 0-3 1.62-3 4.14v.06c0 2.58 1.34 4.16 3.07 4.16a3.66 3.66 0 0 0 2.68-1.36l1.62 1.91a5.65 5.65 0 0 1-4.4 2c-3.46-.03-5.76-2.65-5.76-6.63zM1173.27 349.25h2.57l4.67 13.08h-2.79l-1-2.83h-4.48l-.95 2.83h-2.71zm2.66 7.88l-1.41-4.24-1.43 4.24h2.84zM1182.12 349.32h2.7v10.54h5.26v2.47h-8v-13zM1195.09 360.58l1.6-2a5 5 0 0 0 3.23 1.47 1.42 1.42 0 0 0 1.67-1.28c0-.65-.37-1.06-2.23-1.77-2.3-.89-3.74-1.77-3.74-4 0-2.27 1.75-3.81 4.26-3.81a6.19 6.19 0 0 1 4.2 1.6l-1.51 2a4.55 4.55 0 0 0-2.77-1.21 1.27 1.27 0 0 0-1.51 1.13c0 .74.45 1.1 2.47 1.93 2.27.89 3.49 1.86 3.49 3.88 0 2.42-1.84 3.9-4.37 3.9a7 7 0 0 1-4.79-1.84zM1208.47 351.81h-3.27v-2.49h9.22v2.49h-3.27v10.52h-2.68v-10.52zM1215.27 356v-.22c0-3.9 2.45-6.63 5.89-6.63s5.87 2.71 5.87 6.6v.22c0 3.88-2.45 6.63-5.89 6.63s-5.87-2.76-5.87-6.6zm9-.06v-.13c0-2.56-1.3-4.18-3.1-4.18s-3.1 1.6-3.1 4.16v.13c0 2.56 1.32 4.18 3.12 4.18s3.06-1.64 3.06-4.2zM1229.18 349.32h4.89a4.84 4.84 0 0 1 3.53 1.25 4.12 4.12 0 0 1 1.1 3v.07a3.93 3.93 0 0 1-2.42 3.85l2.77 4.83H1236l-2.4-4.27h-1.69v4.27h-2.7v-13zm4.68 6.36a1.88 1.88 0 0 0 2.12-2c0-1.3-.8-2-2.17-2h-1.93v3.92h2zM1244.51 349.25h2.57l4.67 13.08H1249l-1-2.83h-4.48l-.95 2.83h-2.71zm2.66 7.88l-1.41-4.24-1.43 4.24h2.84zM1252.24 355.92v-.17c0-3.85 2.55-6.62 6.08-6.62a6.09 6.09 0 0 1 4.26 1.52l-1.6 2.1a3.69 3.69 0 0 0-2.69-1.12c-1.86 0-3.27 1.69-3.27 4.09v.15c0 2.68 1.47 4.18 3.38 4.18a3.3 3.3 0 0 0 1.93-.54v-2.3H1258v-2.34h4.92v6a7.54 7.54 0 0 1-4.63 1.62c-3.52.03-6.05-2.49-6.05-6.57zM1265.2 349.32h8.38v2.43h-5.71v2.81h5V357h-5v2.9h5.78v2.43h-8.46v-13z" transform="translate(-22.41 -16.82)"/><path class="cls-15" d="M1225.9 313.6l-12.75 4.39-4.57-13.26"/><path class="cls-15" d="M1236 333.79c2.8-8.07 11.88-20.27 1.38-28.77" transform="translate(-22.41 -16.82)"/><path class="cls-15" d="M1137.35 293.06l12.58-4.86 5.06 13.08"/><path class="cls-15" d="M1171.9 306c-2.8 8.07-11.88 20.27-1.38 28.77" transform="translate(-22.41 -16.82)"/><rect class="cls-16" x="686.22" y="169.2" width="198.25" height="198.25" rx="8.5" ry="8.5"/><path class="cls-17" d="M748.15 273h7.92c5.34 0 8.71 3.09 8.71 8.16v.07c0 5.48-3.91 8.23-8.91 8.33h-2.79v7.24h-4.93V273zm7.69 12.14a3.64 3.64 0 0 0 4-3.81c0-2.48-1.43-3.84-4-3.84h-2.69v7.69h2.75zM767.71 287.56V273h4.93v14.6c0 3.37 1.6 5 4.15 5s4.15-1.63 4.15-4.93V273h4.9v14.46c0 6.56-3.61 9.73-9.12 9.73s-9.01-3.19-9.01-9.63zM788.56 293.62l2.92-3.64a9.13 9.13 0 0 0 5.92 2.69c1.9 0 3.06-1 3.06-2.35 0-1.19-.68-1.94-4.08-3.23-4.22-1.63-6.84-3.23-6.84-7.31v-.07c0-4.15 3.2-7 7.79-7a11.32 11.32 0 0 1 7.69 2.92l-2.76 3.74a8.33 8.33 0 0 0-5.07-2.21c-1.7 0-2.75.85-2.75 2.07 0 1.36.82 2 4.52 3.54 4.15 1.63 6.39 3.4 6.39 7.11v.12c0 4.42-3.37 7.14-8 7.14a12.78 12.78 0 0 1-8.79-3.52zM809 273h4.93v9.56h7.82V273h4.93v23.81h-4.93v-9.69h-7.82v9.69H809V273zM831.45 273h15.34v4.46h-10.45v5.14h9.18v4.46h-9.18v5.31h10.58v4.46h-15.47V273zM850.8 273h8.95a8.85 8.85 0 0 1 6.46 2.28 7.54 7.54 0 0 1 2 5.51v.14a7.18 7.18 0 0 1-4.42 7l5.07 8.84h-5.65l-4.39-7.77h-3.09v7.82h-4.93V273zm8.57 11.63c2.52 0 3.88-1.43 3.88-3.57 0-2.38-1.46-3.57-4-3.57h-3.54v7.18h3.64z" transform="translate(-22.41 -16.82)"/></svg>